<?xml version="1.0" encoding="UTF-8"?><svg id="Layer_2" xmlns="http://www.w3.org/2000/svg" viewBox="0 0 119.53 102.81"><defs><style>.cls-1{fill:#001877;}.cls-2{fill:#fff;}</style></defs><g id="_"><g><path class="cls-2" d="M89.31,15.53L64.38,1.14c-2.63-1.52-5.87-1.52-8.49,0L30.96,15.53c-2.63,1.52-4.25,4.32-4.25,7.36v28.79c0,3.03,1.62,5.84,4.25,7.36l24.93,14.39c2.63,1.52,5.87,1.52,8.49,0l24.93-14.39c2.63-1.52,4.25-4.32,4.25-7.36V22.89c0-3.03-1.62-5.84-4.25-7.36Z"/><path class="cls-1" d="M73.27,41.66c-1.91-.01-3.47-1.77-5.26-3.78-1.57-1.77-3.35-3.77-5.69-5.14-2.34-1.37-4.95-1.95-7.26-2.47-2.78-.62-5.18-1.15-6.01-3.05-.73-1.67,.18-3.56,.93-4.83,4.43-7.55,14.19-10.08,21.73-5.65,7.55,4.44,10.08,14.19,5.65,21.73-.75,1.27-1.95,2.99-3.76,3.17-.11,.01-.22,.02-.34,.02Zm-9.47-24.5c-1.15,0-2.31,.13-3.46,.43-3.43,.89-6.31,3.07-8.1,6.12-.97,1.64-.87,2.27-.79,2.46,.3,.68,2.36,1.14,4.18,1.55,2.37,.53,5.32,1.18,8.01,2.77,2.69,1.58,4.7,3.84,6.32,5.65,1.24,1.39,2.65,2.97,3.39,2.9,.21-.02,.8-.25,1.77-1.89,3.71-6.31,1.59-14.46-4.72-18.16-2.04-1.2-4.3-1.82-6.6-1.83Z"/><path class="cls-1" d="M42.02,39.88c-.22,0-.45-.06-.65-.18-.62-.37-.83-1.17-.46-1.79l9.36-16.02c.37-.62,1.17-.83,1.79-.46,.62,.37,.83,1.17,.46,1.79l-9.36,16.02c-.24,.42-.69,.65-1.14,.64Z"/><path class="cls-1" d="M67.07,54.78c-.22,0-.45-.06-.65-.18-.62-.37-.83-1.17-.46-1.79l9.36-16.02c.37-.62,1.17-.83,1.79-.46,.62,.37,.83,1.17,.46,1.79l-9.36,16.02c-.24,.42-.69,.65-1.14,.64Z"/><path class="cls-1" d="M55.64,45.36c-.22,0-.45-.06-.65-.18-.62-.37-.83-1.17-.46-1.79l7.04-11.84c.37-.62,1.17-.83,1.79-.46,.62,.37,.83,1.17,.46,1.79l-7.04,11.84c-.24,.42-.69,.65-1.14,.64Z"/><path class="cls-1" d="M48.04,48.77c-.22,0-.45-.06-.65-.18-.62-.37-.83-1.17-.46-1.79l10.11-17.21c.37-.62,1.17-.83,1.79-.46,.62,.37,.83,1.17,.46,1.79l-10.11,17.21c-.24,.42-.69,.65-1.14,.64Z"/><path class="cls-1" d="M56.17,54.1c-.22,0-.45-.06-.65-.18-.62-.37-.83-1.17-.46-1.79l10.26-17.44c.37-.62,1.17-.83,1.79-.46,.62,.37,.83,1.17,.46,1.79l-10.26,17.44c-.24,.42-.69,.65-1.14,.64Z"/><path class="cls-1" d="M39.74,53.24c-.22,0-.45-.06-.65-.18-.62-.37-.83-1.17-.46-1.79l13.79-23.32c.36-.62,1.17-.83,1.79-.46,.62,.37,.83,1.17,.46,1.79l-13.79,23.32c-.24,.42-.69,.65-1.14,.64Z"/><path class="cls-1" d="M56.5,63.08c-.22,0-.45-.06-.65-.18-.62-.37-.83-1.17-.46-1.79l13.79-23.32c.36-.62,1.17-.83,1.79-.46,.62,.37,.83,1.17,.46,1.79l-13.79,23.32c-.24,.42-.69,.65-1.14,.64Z"/><circle class="cls-1" cx="67.73" cy="22.18" r="2.11"/><circle class="cls-1" cx="61.59" cy="22.8" r="1.73"/><circle class="cls-1" cx="73.45" cy="30.87" r="1.78"/><circle class="cls-1" cx="72.46" cy="27" r="1.39"/><circle class="cls-1" cx="69.86" cy="28.78" r="1.03"/><circle class="cls-1" cx="58.2" cy="21.48" r="1.03"/></g><g><path class="cls-2" d="M0,102.53H2.63l-.05-13.11h.05l4.67,13.11h2.32l4.67-13.11h.05l-.07,13.11h2.79v-15.29h-4.35l-4.11,11.55h-.05l-4.09-11.55H0v15.29Z"/><path class="cls-2" d="M30.59,96.47c0-3.58-2.07-5.51-5.32-5.51-3.63,0-5.9,2.3-5.9,6.02s2.28,5.83,5.9,5.83c3.14,0,5.23-1.56,5.32-4.11h-2.35c-.12,1.35-1.26,2.09-2.93,2.09-1.95,0-3.18-1.19-3.32-3.39h8.6v-.93Zm-2.35-.65h-6.18c.3-1.91,1.44-2.84,3.23-2.84,1.88,0,2.95,.95,2.95,2.67v.16Z"/><path class="cls-2" d="M32.85,102.47h2.6v-5.6c0-2.46,1.19-3.83,2.95-3.83,1.56,0,2.42,1.02,2.42,2.65v6.79h2.6v-5.69c0-2.39,1.16-3.74,2.97-3.74,1.56,0,2.37,1.02,2.37,2.7v6.74h2.6v-7.32c0-2.7-1.46-4.35-4.02-4.35-2.18,0-3.58,1.16-4,3.02h-.02c-.28-1.86-1.72-3.02-3.95-3.02-2.09,0-3.49,1.23-4,3.21h-.02l.09-3.02h-2.6v11.48Z"/><path class="cls-2" d="M60.87,102.76c3.23,0,5.25-2.35,5.25-6.14,0-3.53-1.98-5.72-5.28-5.72-2.28,0-3.86,1.07-4.35,2.74h-.02c.02-.56,.05-1.49,.05-1.98v-5.21h-2.6v16.11h2.6c-.05-.58-.09-1.63-.09-2.44h.02c.46,1.6,2.05,2.63,4.42,2.63Zm-.67-2.14c-2.25,0-3.67-1.23-3.67-3.23v-.58c0-2.32,1.44-3.77,3.72-3.77,2.05,0,3.28,1.39,3.28,3.65,0,2.44-1.28,3.93-3.32,3.93Z"/><path class="cls-2" d="M68.33,102.47h2.6v-5.02c0-2.74,1.23-4.42,3.21-4.42,1.53,0,2.28,.91,2.28,2.84,0,.53-.05,1.12-.09,1.56h2.37c.05-.49,.12-1.42,.12-2.14,0-2.86-1.37-4.49-3.86-4.49s-3.56,1.42-4.09,3.49h-.02l.09-3.3h-2.6v11.48Z"/><path class="cls-2" d="M84.63,102.66c2.53,0,3.9-1.02,4.28-2.72h.02c0,.93-.07,1.98-.12,2.53h2.6v-7c0-3.02-2.05-4.67-5.53-4.67-3.28,0-5.28,1.37-5.28,3.67,0,.21,.02,.51,.05,.67h2.39c-.02-.19-.02-.37-.02-.44,0-1.28,1-1.95,2.77-1.95,2.02,0,3.02,.77,3.02,2.49v.81h-4.25c-3.07,0-4.3,1.37-4.3,3.11,0,2.23,1.74,3.49,4.37,3.49Zm.53-1.95c-1.58,0-2.51-.6-2.51-1.65,0-.91,.65-1.42,2.14-1.42h4.02v.21c0,1.77-1.39,2.86-3.65,2.86Z"/><path class="cls-2" d="M93.89,102.47h2.6v-5.55c0-2.51,1.44-3.88,3.72-3.88,2.07,0,3.09,1.02,3.09,2.84v6.6h2.6v-7.18c0-2.84-1.79-4.49-4.69-4.49-2.67,0-4.16,1.19-4.79,3.25h-.02l.09-3.07h-2.6v11.48Z"/><path class="cls-2" d="M119.53,96.47c0-3.58-2.07-5.51-5.32-5.51-3.63,0-5.9,2.3-5.9,6.02s2.28,5.83,5.9,5.83c3.14,0,5.23-1.56,5.32-4.11h-2.35c-.12,1.35-1.26,2.09-2.93,2.09-1.95,0-3.19-1.19-3.32-3.39h8.6v-.93Zm-2.35-.65h-6.18c.3-1.91,1.44-2.84,3.23-2.84,1.88,0,2.95,.95,2.95,2.67v.16Z"/></g></g></svg>