<svg width="223" height="50" viewBox="0 0 223 50" fill="none" xmlns="http://www.w3.org/2000/svg">
<path d="M19.2968 0.746053L2.80419 10.2112C1.95109 10.701 1.24234 11.4065 0.750918 12.2547C0.257875 13.1046 0 14.0663 0 15.0459V33.973C0 34.9526 0.261118 35.9159 0.754162 36.7642C1.24721 37.6124 1.95758 38.3179 2.81067 38.8077L19.3049 48.2696C20.1596 48.761 21.1279 49.0189 22.1156 49.0189C23.1033 49.0189 24.0716 48.761 24.9263 48.2696L41.4205 38.8077C42.2752 38.3179 42.984 37.6124 43.477 36.7642C43.9701 35.9159 44.2296 34.9526 44.2312 33.973V15.0459C44.2312 14.0663 43.9717 13.103 43.477 12.2547C42.984 11.4065 42.2736 10.701 41.4189 10.2112L24.9198 0.746053C24.0651 0.256253 23.0952 0 22.1091 0C21.123 0 20.1532 0.257875 19.2984 0.746053H19.2968Z" fill="#87CCE8"/>
<path d="M29.7724 11.0058C27.4191 9.637 24.623 9.22829 21.9729 9.86892C19.3228 10.5096 17.0262 12.146 15.5682 14.4361C15.1125 15.1302 9.39055 24.923 9.39055 24.923C9.33217 25.0203 9.29486 25.1273 9.27864 25.2392C9.26243 25.3511 9.26891 25.4647 9.29811 25.5733C9.3273 25.682 9.37596 25.7842 9.4457 25.875C9.51381 25.9642 9.59977 26.0404 9.69708 26.0972C9.79439 26.1556 9.90306 26.1929 10.015 26.2091C10.1269 26.2253 10.242 26.2188 10.3523 26.1896C10.4626 26.1604 10.5648 26.1118 10.6556 26.0437C10.7464 25.9755 10.821 25.8896 10.8794 25.7923L15.1887 18.4858C15.552 18.8443 15.9931 19.1184 16.4781 19.2838L7.89682 33.7004C7.78167 33.8967 7.74761 34.1302 7.80438 34.3492C7.86114 34.5697 8.00387 34.7579 8.20011 34.873C8.33148 34.9493 8.48069 34.9914 8.63152 34.9931C8.78398 34.9931 8.93319 34.9541 9.06456 34.8795C9.19593 34.8049 9.30622 34.6963 9.38406 34.5665L18.1907 19.7638L18.7681 19.8952L19.6893 20.1028L13.3868 30.7616C13.2716 30.9579 13.2392 31.1914 13.2976 31.4104C13.3544 31.6293 13.4971 31.8191 13.6933 31.9342C13.8231 32.0121 13.9739 32.0526 14.1247 32.051C14.2772 32.0526 14.4264 32.0153 14.5578 31.9407C14.6891 31.8661 14.7994 31.7591 14.8773 31.6293L21.4134 20.565C21.8983 20.7191 22.3702 20.9056 22.8309 21.1213L18.4145 28.4975C18.3107 28.6938 18.288 28.9208 18.348 29.1333C18.4081 29.3458 18.5492 29.5258 18.7405 29.6377C18.9319 29.7496 19.159 29.7837 19.3763 29.7334C19.592 29.6831 19.7801 29.5517 19.9018 29.3668L24.2986 22.0215C24.7009 22.3102 25.0836 22.6248 25.4453 22.9638L18.747 34.2794C18.6838 34.3767 18.64 34.4854 18.6205 34.6006C18.5994 34.7141 18.6043 34.8325 18.6303 34.9444C18.6562 35.0579 18.7065 35.1633 18.7762 35.2574C18.846 35.3515 18.9335 35.4293 19.0341 35.4877C19.1346 35.5461 19.2466 35.585 19.3617 35.5996C19.4769 35.6142 19.5953 35.6061 19.7072 35.5737C19.8191 35.5412 19.9245 35.4877 20.0153 35.4147C20.1061 35.3418 20.1807 35.2509 20.2343 35.1488L26.699 24.2321L27.3137 24.9019L27.7564 25.3917L18.966 40.17C18.9027 40.2673 18.8589 40.376 18.8378 40.4911C18.8184 40.6047 18.8216 40.7231 18.8476 40.8366C18.8735 40.9501 18.9238 41.0555 18.9935 41.1496C19.0633 41.2437 19.1509 41.3215 19.2514 41.3799C19.352 41.4383 19.4639 41.4772 19.5807 41.4918C19.6958 41.5064 19.8142 41.4983 19.9261 41.4659C20.038 41.4334 20.1434 41.3799 20.2343 41.3069C20.3251 41.2339 20.3997 41.1431 20.4532 41.0409L29.028 26.6243C29.3994 26.9438 29.8373 27.1806 30.3108 27.3152L25.9643 34.7076C25.9043 34.8049 25.8653 34.912 25.8475 35.0255C25.8297 35.1374 25.8361 35.2526 25.8637 35.3628C25.8913 35.4731 25.9416 35.5769 26.0097 35.6677C26.0778 35.7586 26.1638 35.8348 26.2627 35.8932C26.3616 35.9516 26.4703 35.9889 26.5838 36.0035C26.6974 36.0197 26.8125 36.0116 26.9228 35.9824C27.0331 35.9532 27.1369 35.9013 27.2277 35.8332C27.3185 35.7634 27.3947 35.6775 27.4515 35.5785L33.5254 25.2814C34.9266 22.8924 35.3191 20.0493 34.6169 17.3732C33.913 14.6972 32.1727 12.4071 29.774 11.0042L29.7724 11.0058ZM32.1614 24.172L31.8678 24.6748C31.4494 25.3446 31.1623 25.5733 30.872 25.5831C30.379 25.5993 29.4415 24.6602 28.6176 23.7455C27.5521 22.5518 26.2189 21.063 24.4397 20.0298C22.6622 18.9967 20.7046 18.5588 19.1363 18.2101C17.9312 17.9458 16.6419 17.6392 16.4099 17.2046C16.251 16.9094 16.3694 16.4439 16.8932 15.5714C17.4609 14.5739 18.2199 13.6981 19.1282 12.9926C20.0364 12.2871 21.0744 11.7665 22.1854 11.46C23.2963 11.1534 24.4559 11.0675 25.5994 11.2069C26.7428 11.3464 27.8489 11.7081 28.8512 12.2709C29.8551 12.8337 30.7358 13.5895 31.4461 14.4912C32.1565 15.393 32.6804 16.4261 32.9885 17.5289C33.2967 18.6318 33.3843 19.7849 33.2432 20.9219C33.1037 22.0588 32.7388 23.1568 32.1711 24.1542L32.1614 24.1704V24.172ZM27.4612 15.9882C27.1839 16.0514 26.8936 16.0336 26.626 15.933C26.36 15.8325 26.1281 15.6573 25.9627 15.427C25.7972 15.1967 25.7032 14.9226 25.6934 14.6404C25.6837 14.3582 25.7599 14.0776 25.9091 13.8376C26.06 13.5976 26.2789 13.4062 26.5384 13.2894C26.7979 13.1726 27.0866 13.1353 27.3672 13.1807C27.6478 13.2262 27.9089 13.3543 28.1165 13.5489C28.3241 13.7419 28.47 13.9933 28.5349 14.269C28.5787 14.4523 28.5836 14.642 28.5528 14.8269C28.5219 15.0118 28.4554 15.1902 28.3549 15.3492C28.2543 15.5097 28.1246 15.6476 27.9705 15.7579C27.8164 15.8665 27.6429 15.946 27.458 15.9882H27.4612ZM23.439 16.3677C23.2201 16.4163 22.9898 16.4017 22.779 16.3223C22.5681 16.2428 22.3865 16.1033 22.2551 15.9217C22.1237 15.74 22.0507 15.5227 22.0426 15.3005C22.0345 15.0767 22.0929 14.8561 22.2113 14.6647C22.3297 14.475 22.5016 14.3225 22.706 14.2285C22.9103 14.1344 23.1374 14.102 23.3612 14.136C23.5834 14.1701 23.791 14.269 23.958 14.4198C24.1251 14.5707 24.2419 14.7669 24.297 14.9842C24.3327 15.1302 24.3408 15.2827 24.3165 15.4319C24.2938 15.5811 24.2402 15.7238 24.1592 15.8519C24.0781 15.9801 23.9743 16.0904 23.851 16.1779C23.7277 16.2655 23.5866 16.3271 23.439 16.3596V16.3693V16.3677ZM30.9969 21.1959C30.7698 21.2478 30.533 21.2332 30.3141 21.1505C30.0968 21.0694 29.907 20.9251 29.7724 20.737C29.6362 20.5488 29.5599 20.325 29.5534 20.0931C29.5453 19.8612 29.6086 19.6341 29.7302 19.4379C29.8535 19.2416 30.0319 19.0859 30.2443 18.9902C30.4568 18.8945 30.692 18.8637 30.9223 18.9026C31.1526 18.9399 31.365 19.0454 31.5353 19.2043C31.7056 19.3633 31.824 19.5676 31.8776 19.793C31.9457 20.0947 31.8921 20.4093 31.7267 20.6705C31.5613 20.9316 31.2985 21.1181 30.9969 21.1862V21.1959ZM30.6401 18.4307C30.4633 18.4729 30.2784 18.4631 30.1065 18.4015C29.9362 18.3399 29.787 18.228 29.6799 18.082C29.5729 17.936 29.5113 17.7625 29.5048 17.5808C29.4967 17.4008 29.5437 17.2224 29.6394 17.0683C29.7351 16.9143 29.8729 16.791 30.0384 16.7164C30.2038 16.6402 30.3871 16.6158 30.5671 16.6434C30.7471 16.6726 30.9142 16.7521 31.0472 16.8753C31.1802 16.9986 31.2742 17.1575 31.3164 17.3327C31.3699 17.5646 31.3277 17.8095 31.2029 18.0122C31.0764 18.215 30.8752 18.3609 30.6417 18.4177V18.4274L30.6401 18.4307ZM28.5722 19.3422C28.4425 19.3714 28.3062 19.3616 28.183 19.313C28.0597 19.2659 27.951 19.1832 27.8748 19.0746C27.7986 18.9659 27.7548 18.8394 27.7516 18.7064C27.7483 18.575 27.7824 18.4437 27.8537 18.3318C27.9235 18.2198 28.0257 18.1306 28.1473 18.0755C28.2689 18.0204 28.4035 18.0025 28.5349 18.0236C28.6663 18.0447 28.7879 18.1047 28.8852 18.1939C28.9825 18.2831 29.0507 18.3999 29.0831 18.528C29.1042 18.614 29.1074 18.7048 29.0928 18.7924C29.0782 18.8799 29.0474 18.9643 28.9988 19.0405C28.9517 19.1167 28.8885 19.1816 28.8155 19.2335C28.7425 19.2854 28.6598 19.3211 28.5722 19.3405V19.3422ZM20.9836 14.7929C20.8538 14.8221 20.7192 14.8107 20.5943 14.7637C20.4711 14.7166 20.364 14.6339 20.2862 14.5253C20.2099 14.4182 20.1661 14.2901 20.1629 14.1571C20.1597 14.0257 20.1937 13.8944 20.2635 13.7825C20.3332 13.6705 20.4354 13.5813 20.5554 13.5262C20.677 13.4711 20.81 13.4532 20.9414 13.4743C21.0728 13.4954 21.1944 13.5538 21.2933 13.643C21.3906 13.7322 21.4604 13.8489 21.4912 13.9771C21.5301 14.1506 21.4993 14.3323 21.4036 14.4831C21.3079 14.6339 21.1555 14.7393 20.9819 14.7783V14.7912L20.9836 14.7929Z" fill="#001A72"/>
<path d="M59.2268 27.3424H62.717L62.6554 9.91878H62.717L68.9271 27.3424H72.0167L78.2268 9.91878H78.2885L78.196 27.3424H81.9036V7.01404H76.1265L70.6576 22.3681H70.596L65.1579 7.01404H59.2268V27.3424Z" fill="#001A72"/>
<path d="M100.696 19.1552C100.696 14.3983 97.9469 11.8341 93.6214 11.8341C88.8013 11.8341 85.7749 14.8929 85.7749 19.8363C85.7749 24.7797 88.8029 27.5904 93.6214 27.5904C97.7928 27.5904 100.573 25.5209 100.696 22.1215H97.5755C97.4214 23.9137 95.9066 24.9014 93.6831 24.9014C91.0881 24.9014 89.45 23.3266 89.2651 20.391H100.696V19.1552ZM97.5755 18.2907H89.3576C89.7598 15.7574 91.273 14.5215 93.6522 14.5215C96.1548 14.5215 97.5755 15.7882 97.5755 18.075V18.2907Z" fill="#001A72"/>
<path d="M104.324 27.3423H107.783V19.8963C107.783 16.6218 109.358 14.7989 111.707 14.7989C113.776 14.7989 114.92 16.158 114.92 18.3215V27.3423H118.379V19.7731C118.379 16.591 119.923 14.7989 122.333 14.7989C124.403 14.7989 125.484 16.158 125.484 18.3832V27.3423H128.944V17.6111C128.944 14.0269 126.998 11.8341 123.6 11.8341C120.695 11.8341 118.843 13.3781 118.287 15.8498H118.256C117.884 13.3781 115.969 11.8341 113.004 11.8341C110.224 11.8341 108.371 13.4722 107.691 16.098H107.66L107.783 12.0822H104.324V27.3439V27.3423Z" fill="#001A72"/>
<path d="M142.209 27.5889C146.504 27.5889 149.191 24.4684 149.191 19.4326C149.191 14.7373 146.565 11.8326 142.178 11.8326C139.15 11.8326 137.05 13.2533 136.401 15.4785H136.37C136.401 14.7373 136.432 13.5014 136.432 12.8527V5.93225H132.972V27.3423H136.432C136.37 26.5703 136.309 25.1804 136.309 24.0986H136.339C136.957 26.2297 139.058 27.5889 142.209 27.5889ZM141.314 24.7474C138.316 24.7474 136.432 23.1093 136.432 20.4527V19.6807C136.432 16.5911 138.347 14.6757 141.375 14.6757C144.094 14.6757 145.732 16.5294 145.732 19.5266C145.732 22.7703 144.032 24.7474 141.314 24.7474Z" fill="#001A72"/>
<path d="M152.805 27.3424H156.264V20.6701C156.264 17.0241 157.902 14.8006 160.528 14.8006C162.566 14.8006 163.556 16.0056 163.556 18.5698C163.556 19.2801 163.494 20.0521 163.433 20.6392H166.584C166.645 19.9905 166.738 18.7546 166.738 17.7977C166.738 13.9977 164.915 11.8358 161.61 11.8358C158.304 11.8358 156.883 13.7204 156.171 16.4695H156.141L156.264 12.0823H152.805V27.344V27.3424Z" fill="#001A72"/>
<path d="M175.694 27.5889C179.061 27.5889 180.884 26.2297 181.378 23.9737H181.409C181.409 25.2096 181.317 26.5995 181.255 27.3407H184.715V18.041C184.715 14.0253 181.996 11.8309 177.361 11.8309C173.005 11.8309 170.348 13.6539 170.348 16.7127C170.348 16.99 170.379 17.3923 170.41 17.608H173.592C173.561 17.3615 173.561 17.1133 173.561 17.0209C173.561 15.3212 174.889 14.4259 177.238 14.4259C179.925 14.4259 181.253 15.446 181.253 17.7312V18.813H175.6C171.521 18.813 169.884 20.636 169.884 22.952C169.884 25.9184 172.202 27.5856 175.692 27.5856L175.694 27.5889ZM176.404 24.9939C174.302 24.9939 173.068 24.1911 173.068 22.8012C173.068 21.5961 173.932 20.9166 175.911 20.9166H181.255V21.1939C181.255 23.5423 179.401 24.9939 176.404 24.9939Z" fill="#001A72"/>
<path d="M188.644 27.3423H192.104V19.958C192.104 16.6218 194.019 14.7989 197.047 14.7989C199.796 14.7989 201.155 16.158 201.155 18.568V27.3423H204.615V17.796C204.615 14.0269 202.235 11.8341 198.374 11.8341C194.82 11.8341 192.843 13.4089 192.01 16.1596H191.979L192.102 12.0822H188.643V27.3439L188.644 27.3423Z" fill="#001A72"/>
<path d="M223 19.1552C223 14.3983 220.251 11.8341 215.925 11.8341C211.105 11.8341 208.079 14.8929 208.079 19.8363C208.079 24.7797 211.107 27.5904 215.925 27.5904C220.097 27.5904 222.877 25.5209 223 22.1215H219.88C219.725 23.9137 218.211 24.9014 215.987 24.9014C213.392 24.9014 211.754 23.3266 211.569 20.391H223V19.1552ZM219.88 18.2907H211.662C212.064 15.7574 213.577 14.5215 215.956 14.5215C218.459 14.5215 219.88 15.7882 219.88 18.075V18.2907Z" fill="#001A72"/>
<path d="M63.2291 45.0128H64.7974L69.1064 34.589H67.6965L64.1004 43.7296H64.0529L60.4093 34.589H58.936L63.2291 45.0128Z" fill="#001A72"/>
<path d="M70.8259 36.189H72.1883V34.589H70.8259V36.189ZM70.8734 45.0128H72.1408V37.187H70.8734V45.0128Z" fill="#001A72"/>
<path d="M78.0888 45.1395C79.8314 45.1395 80.8769 44.2682 81.1779 42.9217H81.2096C81.1938 43.6187 81.1779 44.3158 81.1304 45.0128H82.3977V34.0345H81.1304V38.7554H81.1146C80.8294 37.7256 79.8314 37.0603 78.1997 37.0603C75.8235 37.0603 74.366 38.7237 74.366 41.0524C74.366 43.492 75.8235 45.1395 78.0888 45.1395ZM78.2948 43.9989C76.6789 43.9989 75.6334 42.795 75.6334 41.0524C75.6334 39.4207 76.6789 38.2009 78.3106 38.2009C80.0373 38.2009 81.1304 39.2148 81.1304 40.7989V41.195C81.1304 42.9059 80.0215 43.9989 78.2948 43.9989Z" fill="#001A72"/>
<path d="M92.011 40.7672C92.011 38.4385 90.6962 37.0603 88.4625 37.0603C86.1179 37.0603 84.613 38.6603 84.613 41.1633C84.613 43.5871 86.1338 45.1395 88.4942 45.1395C90.5536 45.1395 91.9318 44.0623 92.011 42.3672H90.8387C90.7278 43.397 89.8249 44.0623 88.51 44.0623C86.9734 44.0623 85.9595 43.0168 85.8803 41.3534H92.011V40.7672ZM90.8387 40.4346H85.9278C86.1655 38.9455 87.1001 38.1375 88.4942 38.1375C89.9833 38.1375 90.8387 38.9613 90.8387 40.3395V40.4346Z" fill="#001A72"/>
<path d="M97.7993 45.1395C100.223 45.1395 101.76 43.5712 101.76 41.1158C101.76 38.6445 100.223 37.0603 97.7993 37.0603C95.3755 37.0603 93.8389 38.6445 93.8389 41.1158C93.8389 43.5712 95.3755 45.1395 97.7993 45.1395ZM97.7993 43.9989C96.1517 43.9989 95.1062 42.8742 95.1062 41.1158C95.1062 39.3415 96.1517 38.2009 97.7993 38.2009C99.4468 38.2009 100.492 39.3415 100.492 41.1158C100.492 42.8742 99.4468 43.9989 97.7993 43.9989Z" fill="#001A72"/>
<path d="M103.892 45.0128H105.159V41.5435C105.159 39.595 106.094 38.2009 107.694 38.2009C108.977 38.2009 109.516 38.9455 109.516 40.387C109.516 40.8781 109.484 41.2742 109.453 41.5118H110.609C110.641 41.2266 110.688 40.6563 110.688 40.1177C110.688 38.2326 109.754 37.0603 107.995 37.0603C106.316 37.0603 105.508 38.09 105.144 39.4524H105.128L105.159 37.187H103.892V45.0128Z" fill="#001A72"/>
<path d="M116.468 45.1395C118.891 45.1395 120.428 43.5712 120.428 41.1158C120.428 38.6445 118.891 37.0603 116.468 37.0603C114.044 37.0603 112.507 38.6445 112.507 41.1158C112.507 43.5712 114.044 45.1395 116.468 45.1395ZM116.468 43.9989C114.82 43.9989 113.775 42.8742 113.775 41.1158C113.775 39.3415 114.82 38.2009 116.468 38.2009C118.115 38.2009 119.161 39.3415 119.161 41.1158C119.161 42.8742 118.115 43.9989 116.468 43.9989Z" fill="#001A72"/>
<path d="M126.204 45.1395C128.628 45.1395 130.164 43.5712 130.164 41.1158C130.164 38.6445 128.628 37.0603 126.204 37.0603C123.78 37.0603 122.244 38.6445 122.244 41.1158C122.244 43.5712 123.78 45.1395 126.204 45.1395ZM126.204 43.9989C124.557 43.9989 123.511 42.8742 123.511 41.1158C123.511 39.3415 124.557 38.2009 126.204 38.2009C127.852 38.2009 128.897 39.3415 128.897 41.1158C128.897 42.8742 127.852 43.9989 126.204 43.9989Z" fill="#001A72"/>
<path d="M132.297 45.0128H133.564V41.1316C133.564 39.2781 134.483 38.2009 135.925 38.2009C137.176 38.2009 137.826 39.0088 137.826 40.2761V45.0128H139.093V41.0682C139.093 39.2623 140.012 38.2009 141.453 38.2009C142.705 38.2009 143.339 39.0247 143.339 40.3237V45.0128H144.606V40.0544C144.606 38.2326 143.576 37.0603 141.802 37.0603C140.329 37.0603 139.315 37.8682 139.045 39.1197H139.03C138.84 37.8682 137.826 37.0603 136.289 37.0603C134.879 37.0603 133.881 37.9157 133.548 39.2623H133.533L133.564 37.187H132.297V45.0128Z" fill="#001A72"/>
</svg>

