<svg width="45" height="50" viewBox="0 0 45 50" fill="none" xmlns="http://www.w3.org/2000/svg">
<path d="M19.2968 0.746053L2.80419 10.2112C1.95109 10.701 1.24234 11.4065 0.750918 12.2547C0.257875 13.1046 0 14.0663 0 15.0459V33.973C0 34.9526 0.261118 35.9159 0.754162 36.7642C1.24721 37.6124 1.95758 38.3179 2.81067 38.8077L19.3049 48.2696C20.1596 48.761 21.1279 49.0189 22.1156 49.0189C23.1033 49.0189 24.0716 48.761 24.9263 48.2696L41.4205 38.8077C42.2752 38.3179 42.984 37.6124 43.477 36.7642C43.9701 35.9159 44.2296 34.9526 44.2312 33.973V15.0459C44.2312 14.0663 43.9717 13.103 43.477 12.2547C42.984 11.4065 42.2736 10.701 41.4189 10.2112L24.9198 0.746053C24.0651 0.256253 23.0952 0 22.1091 0C21.123 0 20.1532 0.257875 19.2984 0.746053H19.2968Z" fill="#87CCE8"/>
<path d="M29.7723 11.0058C27.419 9.637 24.6229 9.22829 21.9728 9.86892C19.3227 10.5096 17.0261 12.146 15.5681 14.4361C15.1123 15.1302 9.39043 24.923 9.39043 24.923C9.33204 25.0203 9.29474 25.1273 9.27852 25.2392C9.2623 25.3511 9.26879 25.4647 9.29798 25.5733C9.32718 25.682 9.37583 25.7842 9.44557 25.875C9.51369 25.9642 9.59965 26.0404 9.69696 26.0972C9.79427 26.1556 9.90294 26.1929 10.0148 26.2091C10.1268 26.2253 10.2419 26.2188 10.3522 26.1896C10.4625 26.1604 10.5647 26.1118 10.6555 26.0437C10.7463 25.9755 10.8209 25.8896 10.8793 25.7923L15.1886 18.4858C15.5519 18.8443 15.993 19.1184 16.4779 19.2838L7.8967 33.7004C7.78155 33.8967 7.74749 34.1302 7.80426 34.3492C7.86102 34.5697 8.00375 34.7579 8.19999 34.873C8.33136 34.9493 8.48057 34.9914 8.6314 34.9931C8.78386 34.9931 8.93307 34.9541 9.06444 34.8795C9.19581 34.8049 9.30609 34.6963 9.38394 34.5665L18.1906 19.7638L18.768 19.8952L19.6892 20.1028L13.3867 30.7616C13.2715 30.9579 13.2391 31.1914 13.2975 31.4104C13.3542 31.6293 13.497 31.8191 13.6932 31.9342C13.823 32.0121 13.9738 32.0526 14.1246 32.051C14.2771 32.0526 14.4263 32.0153 14.5577 31.9407C14.689 31.8661 14.7993 31.7591 14.8772 31.6293L21.4132 20.565C21.8982 20.7191 22.3701 20.9056 22.8307 21.1213L18.4144 28.4975C18.3106 28.6938 18.2879 28.9208 18.3479 29.1333C18.4079 29.3458 18.549 29.5258 18.7404 29.6377C18.9318 29.7496 19.1589 29.7837 19.3762 29.7334C19.5919 29.6831 19.78 29.5517 19.9017 29.3668L24.2985 22.0215C24.7007 22.3102 25.0835 22.6248 25.4452 22.9638L18.7469 34.2794C18.6837 34.3767 18.6399 34.4854 18.6204 34.6006C18.5993 34.7141 18.6042 34.8325 18.6301 34.9444C18.6561 35.0579 18.7064 35.1633 18.7761 35.2574C18.8458 35.3515 18.9334 35.4293 19.034 35.4877C19.1345 35.5461 19.2464 35.585 19.3616 35.5996C19.4767 35.6142 19.5951 35.6061 19.707 35.5737C19.8189 35.5412 19.9244 35.4877 20.0152 35.4147C20.106 35.3418 20.1806 35.2509 20.2341 35.1488L26.6989 24.2321L27.3135 24.9019L27.7563 25.3917L18.9659 40.17C18.9026 40.2673 18.8588 40.376 18.8377 40.4911C18.8183 40.6047 18.8215 40.7231 18.8475 40.8366C18.8734 40.9501 18.9237 41.0555 18.9934 41.1496C19.0632 41.2437 19.1507 41.3215 19.2513 41.3799C19.3519 41.4383 19.4638 41.4772 19.5805 41.4918C19.6957 41.5064 19.8141 41.4983 19.926 41.4659C20.0379 41.4334 20.1433 41.3799 20.2341 41.3069C20.325 41.2339 20.3996 41.1431 20.4531 41.0409L29.0278 26.6243C29.3992 26.9438 29.8371 27.1806 30.3107 27.3152L25.9642 34.7076C25.9041 34.8049 25.8652 34.912 25.8474 35.0255C25.8295 35.1374 25.836 35.2526 25.8636 35.3628C25.8912 35.4731 25.9414 35.5769 26.0096 35.6677C26.0777 35.7586 26.1636 35.8348 26.2626 35.8932C26.3615 35.9516 26.4702 35.9889 26.5837 36.0035C26.6972 36.0197 26.8124 36.0116 26.9227 35.9824C27.033 35.9532 27.1368 35.9013 27.2276 35.8332C27.3184 35.7634 27.3946 35.6775 27.4514 35.5785L33.5252 25.2814C34.9265 22.8924 35.319 20.0493 34.6167 17.3732C33.9129 14.6972 32.1726 12.4071 29.7739 11.0042L29.7723 11.0058ZM32.1613 24.172L31.8677 24.6748C31.4493 25.3446 31.1622 25.5733 30.8719 25.5831C30.3788 25.5993 29.4414 24.6602 28.6175 23.7455C27.5519 22.5518 26.2188 21.063 24.4396 20.0298C22.6621 18.9967 20.7045 18.5588 19.1361 18.2101C17.9311 17.9458 16.6417 17.6392 16.4098 17.2046C16.2509 16.9094 16.3693 16.4439 16.8931 15.5714C17.4608 14.5739 18.2198 13.6981 19.128 12.9926C20.0363 12.2871 21.0743 11.7665 22.1852 11.46C23.2962 11.1534 24.4558 11.0675 25.5992 11.2069C26.7426 11.3464 27.8487 11.7081 28.8511 12.2709C29.855 12.8337 30.7356 13.5895 31.446 14.4912C32.1564 15.393 32.6802 16.4261 32.9884 17.5289C33.2966 18.6318 33.3841 19.7849 33.243 20.9219C33.1036 22.0588 32.7386 23.1568 32.171 24.1542L32.1613 24.1704V24.172ZM27.4611 15.9882C27.1838 16.0514 26.8935 16.0336 26.6259 15.933C26.3599 15.8325 26.128 15.6573 25.9625 15.427C25.7971 15.1967 25.703 14.9226 25.6933 14.6404C25.6836 14.3582 25.7598 14.0776 25.909 13.8376C26.0598 13.5976 26.2788 13.4062 26.5383 13.2894C26.7978 13.1726 27.0865 13.1353 27.3671 13.1807C27.6476 13.2262 27.9088 13.3543 28.1164 13.5489C28.3239 13.7419 28.4699 13.9933 28.5348 14.269C28.5786 14.4523 28.5834 14.642 28.5526 14.8269C28.5218 15.0118 28.4553 15.1902 28.3548 15.3492C28.2542 15.5097 28.1245 15.6476 27.9704 15.7579C27.8163 15.8665 27.6428 15.946 27.4579 15.9882H27.4611ZM23.4389 16.3677C23.22 16.4163 22.9897 16.4017 22.7788 16.3223C22.568 16.2428 22.3863 16.1033 22.255 15.9217C22.1236 15.74 22.0506 15.5227 22.0425 15.3005C22.0344 15.0767 22.0928 14.8561 22.2112 14.6647C22.3296 14.475 22.5015 14.3225 22.7058 14.2285C22.9102 14.1344 23.1373 14.102 23.3611 14.136C23.5833 14.1701 23.7909 14.269 23.9579 14.4198C24.125 14.5707 24.2417 14.7669 24.2969 14.9842C24.3326 15.1302 24.3407 15.2827 24.3163 15.4319C24.2936 15.5811 24.2401 15.7238 24.159 15.8519C24.0779 15.9801 23.9741 16.0904 23.8509 16.1779C23.7276 16.2655 23.5865 16.3271 23.4389 16.3596V16.3693V16.3677ZM30.9968 21.1959C30.7697 21.2478 30.5329 21.2332 30.314 21.1505C30.0966 21.0694 29.9069 20.9251 29.7723 20.737C29.636 20.5488 29.5598 20.325 29.5533 20.0931C29.5452 19.8612 29.6085 19.6341 29.7301 19.4379C29.8534 19.2416 30.0318 19.0859 30.2442 18.9902C30.4567 18.8945 30.6919 18.8637 30.9222 18.9026C31.1525 18.9399 31.3649 19.0454 31.5352 19.2043C31.7055 19.3633 31.8239 19.5676 31.8774 19.793C31.9455 20.0947 31.892 20.4093 31.7266 20.6705C31.5612 20.9316 31.2984 21.1181 30.9968 21.1862V21.1959ZM30.64 18.4307C30.4632 18.4729 30.2783 18.4631 30.1064 18.4015C29.9361 18.3399 29.7869 18.228 29.6798 18.082C29.5728 17.936 29.5111 17.7625 29.5047 17.5808C29.4965 17.4008 29.5436 17.2224 29.6393 17.0683C29.735 16.9143 29.8728 16.791 30.0382 16.7164C30.2037 16.6402 30.3869 16.6158 30.567 16.6434C30.747 16.6726 30.914 16.7521 31.047 16.8753C31.18 16.9986 31.2741 17.1575 31.3163 17.3327C31.3698 17.5646 31.3276 17.8095 31.2027 18.0122C31.0762 18.215 30.8751 18.3609 30.6416 18.4177V18.4274L30.64 18.4307ZM28.5721 19.3422C28.4423 19.3714 28.3061 19.3616 28.1828 19.313C28.0596 19.2659 27.9509 19.1832 27.8747 19.0746C27.7985 18.9659 27.7547 18.8394 27.7514 18.7064C27.7482 18.575 27.7823 18.4437 27.8536 18.3318C27.9234 18.2198 28.0255 18.1306 28.1472 18.0755C28.2688 18.0204 28.4034 18.0025 28.5348 18.0236C28.6662 18.0447 28.7878 18.1047 28.8851 18.1939C28.9824 18.2831 29.0505 18.3999 29.083 18.528C29.1041 18.614 29.1073 18.7048 29.0927 18.7924C29.0781 18.8799 29.0473 18.9643 28.9986 19.0405C28.9516 19.1167 28.8884 19.1816 28.8154 19.2335C28.7424 19.2854 28.6597 19.3211 28.5721 19.3405V19.3422ZM20.9834 14.7929C20.8537 14.8221 20.7191 14.8107 20.5942 14.7637C20.4709 14.7166 20.3639 14.6339 20.286 14.5253C20.2098 14.4182 20.166 14.2901 20.1628 14.1571C20.1595 14.0257 20.1936 13.8944 20.2633 13.7825C20.3331 13.6705 20.4353 13.5813 20.5553 13.5262C20.6769 13.4711 20.8099 13.4532 20.9413 13.4743C21.0726 13.4954 21.1943 13.5538 21.2932 13.643C21.3905 13.7322 21.4603 13.8489 21.4911 13.9771C21.53 14.1506 21.4992 14.3323 21.4035 14.4831C21.3078 14.6339 21.1554 14.7393 20.9818 14.7783V14.7912L20.9834 14.7929Z" fill="#001A72"/>
</svg>
